<?xml version="1.0" standalone="no"?>
<!DOCTYPE svg PUBLIC "-//W3C//DTD SVG 20010904//EN"
 "http://www.w3.org/TR/2001/REC-SVG-20010904/DTD/svg10.dtd">
<svg version="1.0" xmlns="http://www.w3.org/2000/svg"
 width="512.000000pt" height="512.000000pt" viewBox="0 0 512.000000 512.000000"
 preserveAspectRatio="xMidYMid meet">

<g transform="translate(0.000000,512.000000) scale(0.100000,-0.100000)"
fill="#000000" stroke="none">
<path d="M2032 5105 c-154 -34 -284 -156 -332 -314 -19 -59 -20 -94 -20 -536
l0 -473 -94 -80 c-51 -44 -128 -121 -170 -171 l-77 -91 -474 0 c-442 0 -477
-1 -536 -20 -160 -49 -281 -179 -314 -337 -18 -83 -20 -360 -4 -396 21 -46 81
-60 120 -28 23 19 24 25 30 208 4 162 8 194 26 235 30 67 98 131 167 157 55
20 73 21 471 21 l414 0 -46 -96 c-90 -190 -136 -400 -136 -624 0 -224 46 -434
136 -624 l46 -96 -414 0 c-398 0 -416 1 -471 21 -68 26 -136 90 -167 157 -19
42 -22 71 -27 265 -5 215 -5 219 -29 238 -39 32 -99 18 -120 -28 -17 -36 -14
-372 4 -456 33 -158 154 -288 314 -337 59 -19 94 -20 536 -20 l473 0 80 -94
c44 -51 121 -128 171 -170 l91 -77 0 -474 c0 -442 1 -477 20 -536 49 -160 179
-281 337 -314 99 -21 947 -21 1046 0 158 33 288 154 337 314 19 59 20 94 20
536 l0 474 91 77 c50 42 127 119 171 170 l80 94 473 0 c442 0 477 1 536 20
115 35 209 111 269 216 55 96 60 141 60 644 0 503 -5 548 -60 644 -60 105
-154 181 -269 216 -59 19 -94 20 -536 20 l-473 0 -80 94 c-44 51 -121 128
-171 170 l-91 77 0 249 c0 137 -3 256 -6 265 -8 19 -55 45 -84 45 -12 0 -32
-12 -45 -26 -25 -27 -25 -29 -25 -227 0 -155 -3 -198 -12 -194 -7 3 -51 22
-97 43 -191 84 -398 127 -611 127 -224 0 -434 -46 -624 -136 l-96 -46 0 414
c0 398 1 416 21 471 26 68 89 136 157 167 46 22 55 22 537 22 l490 0 56 -26
c66 -31 116 -80 149 -145 20 -40 24 -69 29 -175 5 -106 9 -130 25 -148 27 -30
80 -28 111 4 24 23 25 30 25 143 0 91 -5 135 -20 183 -49 160 -179 281 -337
314 -95 20 -957 20 -1051 0z m788 -1230 c270 -59 496 -181 685 -370 192 -192
313 -417 372 -695 25 -118 25 -382 0 -500 -59 -278 -180 -503 -372 -695 -192
-192 -417 -313 -695 -372 -118 -25 -391 -25 -507 0 -275 60 -497 180 -689 371
-192 193 -310 413 -371 689 -25 115 -25 399 0 514 61 276 179 496 371 689 217
216 466 338 791 388 63 9 342 -3 415 -19z m1963 -625 c66 -33 115 -83 146
-149 l26 -56 0 -485 0 -485 -26 -56 c-31 -66 -80 -116 -146 -149 l-48 -25
-427 -3 -427 -3 46 97 c90 190 136 400 136 624 0 224 -46 434 -136 624 l-46
97 427 -3 427 -3 48 -25z m-2649 -2132 c158 -45 265 -61 426 -61 213 0 420 43
611 127 46 21 90 40 97 43 11 4 12 -73 10 -418 l-3 -424 -25 -48 c-33 -66 -83
-115 -149 -146 l-56 -26 -490 0 c-482 0 -491 0 -537 22 -68 31 -131 99 -157
167 -20 55 -21 73 -21 471 l0 414 96 -46 c53 -25 142 -59 198 -75z"/>
<path d="M2659 3570 c-136 -23 -242 -118 -284 -256 -19 -63 -19 -213 0 -287
33 -126 112 -225 199 -248 103 -28 230 22 340 134 82 83 130 165 145 253 42
232 -166 442 -400 404z m168 -196 c79 -64 97 -167 44 -259 -39 -68 -125 -147
-185 -170 -43 -17 -51 -17 -75 -4 -62 35 -97 139 -89 267 4 60 10 81 34 115
45 64 95 89 171 84 51 -2 69 -8 100 -33z"/>
<path d="M1907 3469 c-126 -19 -229 -119 -256 -248 -24 -114 26 -247 135 -358
157 -160 334 -135 432 59 59 120 68 279 19 373 -64 126 -193 194 -330 174z
m122 -179 c47 -23 81 -86 81 -147 0 -60 -35 -161 -66 -194 -45 -47 -78 -40
-145 31 -69 72 -94 129 -87 200 10 106 118 161 217 110z"/>
<path d="M3212 3000 c-75 -16 -163 -70 -242 -150 -153 -153 -182 -307 -79
-424 72 -82 192 -126 340 -126 139 0 220 30 298 109 105 104 132 260 71 397
-59 135 -239 225 -388 194z m153 -178 c75 -36 109 -98 103 -184 -5 -68 -41
-121 -104 -153 -47 -24 -193 -28 -263 -7 -50 15 -111 70 -111 99 0 34 47 118
91 162 101 100 194 127 284 83z"/>
<path d="M2169 2746 c-200 -36 -381 -119 -483 -223 -85 -87 -101 -172 -51
-276 38 -80 101 -146 209 -222 108 -75 173 -141 250 -252 126 -182 276 -261
399 -209 215 89 380 564 305 876 -35 145 -131 245 -280 292 -81 25 -249 32
-349 14z m314 -173 c72 -21 130 -83 153 -160 54 -184 -23 -515 -152 -653 -52
-55 -67 -59 -122 -31 -47 24 -92 73 -170 181 -71 100 -141 169 -237 235 -122
84 -185 157 -185 215 0 29 69 92 147 133 183 95 408 127 566 80z"/>
<path d="M3090 2200 c-75 -16 -165 -66 -214 -121 -98 -110 -77 -243 59 -367
176 -161 391 -167 523 -16 133 150 81 391 -104 483 -39 20 -67 26 -134 27 -47
2 -105 -1 -130 -6z m200 -172 c137 -71 85 -278 -70 -278 -62 0 -136 38 -194
100 -81 87 -53 147 86 185 77 20 128 18 178 -7z"/>
</g>
</svg>
